<?xml version="1.0" encoding="iso-8859-1"?>
<!-- Generator: Adobe Illustrator 19.0.0, SVG Export Plug-In . SVG Version: 6.00 Build 0)  -->
<svg version="1.1" id="Layer_1" xmlns="http://www.w3.org/2000/svg" xmlns:xlink="http://www.w3.org/1999/xlink" x="0px" y="0px"
	 viewBox="0 0 512 512" style="enable-background:new 0 0 512 512;" xml:space="preserve">
<path style="fill:#FFD77A;" d="M257.839,123.817c19.79,0,33.071-16.838,33.071-36.373C290.91,38.16,256.063,0,256.063,0
	s-34.847,38.16-34.847,87.443c0,19.535,13.28,36.373,33.071,36.373h3.552V123.817z"/>
<path style="fill:#43434D;" d="M256.063,162.77c-4.511,0-8.168-3.657-8.168-8.168V96.106c0-4.511,3.657-8.168,8.168-8.168
	c4.511,0,8.168,3.657,8.168,8.168v58.495C264.231,159.113,260.574,162.77,256.063,162.77z"/>
<path style="fill:#DDE1ED;" d="M271.235,154.602h-30.342c-7.69,0-13.925,6.234-13.925,13.925v87.159h58.19v-87.159
	C285.158,160.836,278.924,154.602,271.235,154.602z"/>
<path style="opacity:0.1;enable-background:new    ;" d="M262.673,154.601h-21.781c-7.69,0-13.925,6.235-13.925,13.925v87.159
	h21.781v-87.159C248.749,160.836,254.983,154.601,262.673,154.601z"/>
<path style="fill:#FFB969;" d="M122.423,299.183c0,11.325-32.596,26.588-32.394,42.858c0.421,33.942,1.394,72.271,3.383,88.388
	C99.17,477.102,139.117,512,186.144,512h139.84c47.026,0,86.975-34.898,92.732-81.571c1.946-15.775,2.919-52.833,3.354-86.227
	c0.223-17.076-32.366-33.194-32.366-45.019H122.423z"/>
<path style="opacity:0.1;enable-background:new    ;" d="M422.07,344.202c0.223-17.076-32.366-33.194-32.366-45.019h-267.28
	c0,11.325-32.596,26.588-32.394,42.858c0.232,18.719,0.633,38.762,1.279,55.688c5.071,1.478,10.345,2.371,15.732,2.614
	c1.037,0.046,2.079,0.07,3.129,0.07c13.378,0,25.879-3.817,36.473-10.423c10.595,6.605,23.095,10.423,36.474,10.423
	c13.379,0,25.879-3.817,36.474-10.423c10.595,6.605,23.095,10.423,36.474,10.423c13.378,0,25.879-3.817,36.473-10.423
	c10.595,6.605,23.095,10.423,36.474,10.423s25.879-3.817,36.474-10.423c10.595,6.605,23.095,10.423,36.474,10.423
	c1.049,0,2.092-0.024,3.14-0.071c5.402-0.244,10.666-1.128,15.719-2.59C421.439,381.471,421.833,362.302,422.07,344.202z"/>
<path style="fill:#FFD9E8;" d="M435.225,321.227l-1.165-3.648c-11.261-26.046-50.051-80.166-177.997-80.166
	s-166.737,54.12-177.997,80.166c-9.847,22.779,5.641,49.008,30.432,50.124c0.553,0.025,1.11,0.037,1.67,0.037
	c20.144,0,36.474-16.33,36.474-36.474c0,20.144,16.33,36.474,36.474,36.474s36.474-16.33,36.474-36.474
	c0,20.144,16.33,36.474,36.474,36.474s36.474-16.33,36.474-36.474c0,20.144,16.33,36.474,36.474,36.474s36.474-16.33,36.474-36.474
	c0,20.144,16.33,36.474,36.474,36.474c0.56,0,1.116-0.013,1.669-0.037C426.779,366.661,442.277,343.303,435.225,321.227z"/>
<circle style="fill:#FFB969;" cx="173.281" cy="248.673" r="21.429"/>
<circle style="fill:#AF9CE6;" cx="256.005" cy="291.69" r="21.429"/>
<circle style="fill:#FFA0C1;" cx="83.468" cy="302.581" r="21.429"/>
<circle style="fill:#61CCFF;" cx="338.719" cy="248.673" r="21.429"/>
<circle style="fill:#8CCC78;" cx="428.532" cy="302.581" r="21.429"/>
<g>
</g>
<g>
</g>
<g>
</g>
<g>
</g>
<g>
</g>
<g>
</g>
<g>
</g>
<g>
</g>
<g>
</g>
<g>
</g>
<g>
</g>
<g>
</g>
<g>
</g>
<g>
</g>
<g>
</g>
</svg>
